<svg width="20" height="20" viewBox="0 0 20 20" fill="none" xmlns="http://www.w3.org/2000/svg">
<path fill-rule="evenodd" clip-rule="evenodd" d="M2.84979 10.5659C3.1621 10.722 3.54183 10.5956 3.69819 10.2834L3.70079 10.2784C3.70366 10.2728 3.7086 10.2634 3.71563 10.2503C3.72969 10.224 3.75205 10.1833 3.7828 10.13C3.84434 10.0234 3.93918 9.86735 4.06785 9.67828C4.32584 9.29918 4.71618 8.7929 5.24238 8.28775C6.29436 7.27785 7.86237 6.29532 10.0001 6.29532C12.1378 6.29532 13.7058 7.27785 14.7578 8.28775C15.284 8.7929 15.6743 9.29918 15.9323 9.67828C16.0158 9.80094 16.085 9.90972 16.1402 10.0001C16.085 10.0905 16.0158 10.1993 15.9323 10.3219C15.6743 10.701 15.284 11.2073 14.7578 11.7125C13.7058 12.7224 12.1378 13.7049 10.0001 13.7049C7.94568 13.7049 6.41818 12.7979 5.36845 11.8308C5.11153 11.5941 4.71137 11.6105 4.47468 11.8674C4.23798 12.1243 4.25438 12.5245 4.5113 12.7612C5.72059 13.8753 7.54004 14.9699 10.0001 14.9699C12.5611 14.9699 14.4268 13.7838 15.6338 12.6251C16.2372 12.0459 16.6827 11.4678 16.9781 11.0337C17.1262 10.8161 17.2375 10.6334 17.3129 10.5028C17.3506 10.4374 17.3794 10.385 17.3994 10.3477C17.4094 10.329 17.4173 10.3141 17.4229 10.3032L17.4297 10.29L17.4319 10.2857L17.4326 10.2841L17.433 10.2835C17.4331 10.2832 17.4332 10.283 16.8675 10.0001L17.4332 10.283C17.5223 10.1049 17.5223 9.89531 17.4332 9.71723L16.8675 10.0001C17.4332 9.71723 17.4331 9.71698 17.433 9.7167L17.4326 9.71608L17.4319 9.71452L17.4297 9.71022L17.4229 9.69697C17.4173 9.6861 17.4094 9.6712 17.3994 9.65253C17.3794 9.61522 17.3506 9.56281 17.3129 9.49746C17.2375 9.36686 17.1262 9.18408 16.9781 8.96653C16.6827 8.53238 16.2372 7.95434 15.6338 7.37516C14.4268 6.2164 12.5611 5.03027 10.0001 5.03027C7.43902 5.03027 5.57333 6.2164 4.36629 7.37516C3.76298 7.95434 3.31748 8.53238 3.02202 8.96653C2.87396 9.18408 2.76266 9.36686 2.68725 9.49746C2.64952 9.56281 2.62071 9.61522 2.6007 9.65253C2.59069 9.6712 2.58289 9.6861 2.57726 9.69697L2.57046 9.71022L2.56828 9.71452L2.5675 9.71608L2.56718 9.7167C2.56704 9.71698 2.56692 9.71723 3.13266 10.0001L2.56692 9.71723C2.41069 10.0297 2.53734 10.4096 2.84979 10.5659ZM8.1025 10.0001C8.1025 8.95211 8.95207 8.10253 10.0001 8.10253C11.0481 8.10253 11.8976 8.95211 11.8976 10.0001C11.8976 11.0481 11.0481 11.8977 10.0001 11.8977C8.95207 11.8977 8.1025 11.0481 8.1025 10.0001ZM10.0001 6.83749C8.2534 6.83749 6.83745 8.25344 6.83745 10.0001C6.83745 11.7468 8.2534 13.1627 10.0001 13.1627C11.7467 13.1627 13.1627 11.7468 13.1627 10.0001C13.1627 8.25344 11.7467 6.83749 10.0001 6.83749Z" fill="#6A6A6A"/>
</svg>
