<svg width="16" height="16" viewBox="0 0 16 16" fill="none" xmlns="http://www.w3.org/2000/svg">
<path fill-rule="evenodd" clip-rule="evenodd" d="M5.87727 2.04819C5.87727 1.74543 5.63183 1.5 5.32907 1.5C5.02632 1.5 4.78088 1.74543 4.78088 2.04819V2.23266H2.36143C2.05867 2.23266 1.81323 2.47809 1.81323 2.78085V6.06649V13.9518C1.81323 14.2546 2.05867 14.5 2.36143 14.5C2.66418 14.5 2.90962 14.2546 2.90962 13.9518V6.61469H13.0904V10.6662C13.0904 11.4092 12.8233 12.112 12.3625 12.622C11.9035 13.1303 11.2935 13.4036 10.6709 13.4036H4.73556C4.4328 13.4036 4.18736 13.649 4.18736 13.9518C4.18736 14.2546 4.4328 14.5 4.73556 14.5H10.6709C11.6224 14.5 12.5221 14.081 13.1762 13.3569C13.8285 12.6347 14.1867 11.666 14.1867 10.6662V6.06649V2.78085C14.1867 2.47809 13.9413 2.23266 13.6385 2.23266H11.2191V2.04819C11.2191 1.74543 10.9737 1.5 10.6709 1.5C10.3681 1.5 10.1227 1.74543 10.1227 2.04819V2.23266H5.87727V2.04819ZM4.78088 3.32905V4.3481C4.78088 4.65085 5.02632 4.89629 5.32907 4.89629C5.63183 4.89629 5.87727 4.65085 5.87727 4.3481V3.32905H10.1227V4.3481C10.1227 4.65085 10.3681 4.89629 10.6709 4.89629C10.9737 4.89629 11.2191 4.65085 11.2191 4.3481V3.32905H13.0904V5.5183H2.90962V3.32905H4.78088Z" fill="#6A6A6A"/>
</svg>
